<svg id="Layer_1" data-name="Layer 1" xmlns="http://www.w3.org/2000/svg" xmlns:xlink="http://www.w3.org/1999/xlink" viewBox="0 0 531 537"><defs><style>.cls-1,.cls-4,.cls-5,.cls-7{fill:none;}.cls-2{clip-path:url(#clip-path);}.cls-3{fill:#8e949b;}.cls-4,.cls-5,.cls-7{stroke:#e6edf2;stroke-linecap:round;}.cls-4,.cls-7{stroke-miterlimit:10;}.cls-4,.cls-5{stroke-width:22px;}.cls-5{stroke-linejoin:round;}.cls-6{fill:#e6edf2;}.cls-7{stroke-width:20px;}</style><clipPath id="clip-path"><path class="cls-1" d="M224.75-824.48a33.17,33.17,0,0,1-46.91,0,33.17,33.17,0,0,1,0-46.91,33.17,33.17,0,0,1,46.91,0A33.17,33.17,0,0,1,224.75-824.48Zm15.95,15.95a55.72,55.72,0,0,0,0-78.81,55.72,55.72,0,0,0-78.81,0,55.72,55.72,0,0,0,0,78.81A55.72,55.72,0,0,0,240.69-808.54Z"/></clipPath></defs><title>brush-icons</title><g class="cls-2"><rect class="cls-3" x="105.81" y="-199.42" width="210.94" height="210.94"/></g><path class="cls-4" d="M251,242s8-7,28-27a583,583,0,0,0,42-47"/><path class="cls-4" d="M293,282s-8.61,8.54,16-15c23-22,60-51,60-51"/><line class="cls-5" x1="321" y1="168" x2="369" y2="215"/><line class="cls-5" x1="253" y1="243" x2="288" y2="281"/><path class="cls-6" d="M193.67,293.6a16.14,16.14,0,0,1,11.59-4.29l19.33.77a16.13,16.13,0,0,1,15.48,16.76l-.77,19.33a16.13,16.13,0,0,1-16.76,15.48l-35.48-1.41,1.41-35.48a16.14,16.14,0,0,1,5.2-11.21m-13.14-14.22a35.27,35.27,0,0,0-11.37,24.74l-1.41,35.48-.81,19.29,19.33.77L221.7,361a35.5,35.5,0,0,0,36.89-34h0l.77-19.34a35.5,35.5,0,0,0-34-36.89h0L206,270a35.27,35.27,0,0,0-25.49,9.4Z"/><line class="cls-7" x1="173" y1="175" x2="236" y2="175"/></svg>