<?xml version="1.0" encoding="utf-8"?>
<!-- Generator: Adobe Illustrator 19.2.1, SVG Export Plug-In . SVG Version: 6.00 Build 0)  -->
<svg version="1.1" xmlns="http://www.w3.org/2000/svg" xmlns:xlink="http://www.w3.org/1999/xlink" x="0px" y="0px"
	 viewBox="0 0 115 115" style="enable-background:new 0 0 115 115;" xml:space="preserve">
<style type="text/css">
	.st0{display:none;}
	.st1{display:inline;fill:#1B2731;}
	.st2{display:inline;}
	.st3{opacity:0.5;}
	.st4{fill:#434C5A;}
	.st5{opacity:0.5;fill:none;stroke:#434C5A;stroke-width:0.125;stroke-linecap:round;stroke-linejoin:round;stroke-miterlimit:10;}
	
		.st6{opacity:0.5;fill:none;stroke:#434C5A;stroke-width:0.125;stroke-linecap:round;stroke-linejoin:round;stroke-miterlimit:10;stroke-dasharray:1.1684,4.6736;}
	.st7{fill:#FFFFFF;}
	.st8{fill:none;stroke:#E6EDF2;stroke-width:6;stroke-linecap:round;stroke-miterlimit:10;}
	.st9{fill:#E6EDF2;}
	.st10{fill:none;stroke:#E6EDF2;stroke-width:6;stroke-miterlimit:10;}
	.st11{fill:none;stroke:#E6EDF2;stroke-width:6;stroke-linejoin:round;stroke-miterlimit:10;}
	.st12{fill:none;stroke:#E6EDF2;stroke-width:6;stroke-linecap:round;stroke-linejoin:round;stroke-miterlimit:10;}
	.st13{fill:none;stroke:#E6EDF2;stroke-width:7;stroke-linecap:round;stroke-miterlimit:10;}
	.st14{fill:#E6EDF2;stroke:#E6EDF2;stroke-width:2;stroke-miterlimit:10;}
	.st15{fill:#E6EDF2;stroke:#E6EDF2;stroke-miterlimit:10;}
	.st16{fill:none;stroke:#E6EDF2;stroke-width:6;stroke-linecap:round;stroke-linejoin:bevel;stroke-miterlimit:10;}
	.st17{fill:none;stroke:#E6EDF2;stroke-width:6;stroke-linecap:round;stroke-linejoin:round;}
	.st18{fill:#E6ECF1;}
	.st19{fill:none;stroke:#E6EDF2;stroke-width:10;stroke-linecap:round;stroke-linejoin:round;stroke-miterlimit:10;}
	.st20{fill:none;stroke:#E6EDF2;stroke-width:8;stroke-linecap:round;stroke-miterlimit:10;}
	.st21{fill:none;stroke:#E6EDF2;stroke-width:8;stroke-linecap:round;stroke-linejoin:round;}
	.st22{display:inline;fill:#E6EDF2;}
	.st23{fill:#A3B3BF;}
	.st24{fill:none;stroke:#A3B3BF;stroke-miterlimit:10;}
</style>
<g id="BG" class="st0">
	<rect x="-1072.9" y="-1254.7" class="st1" width="1701.8" height="2001.3"/>
</g>
<g id="Grid" class="st0">
	<g class="st2">
		<g class="st3">
			<path class="st4" d="M112,3.5v109H3.1V3.5H112 M112.1,3.4H3v109.2h109.1V3.4L112.1,3.4z"/>
		</g>
		<g class="st3">
			<path class="st4" d="M57.6,24c18.7,0,34,15.3,34,34s-15.2,34-34,34s-34-15.3-34-34S38.8,24,57.6,24 M57.6,23.9
				c-18.8,0-34.1,15.3-34.1,34.1s15.3,34.1,34.1,34.1c18.8,0,34.1-15.3,34.1-34.1S76.4,23.9,57.6,23.9L57.6,23.9z"/>
		</g>
		<line class="st5" x1="112.1" y1="58" x2="3" y2="58"/>
		<line class="st5" x1="57.6" y1="3.4" x2="57.6" y2="112.6"/>
		<line class="st6" x1="33.5" y1="3.4" x2="33.5" y2="112.6"/>
		<line class="st6" x1="81.4" y1="3.4" x2="81.4" y2="112.6"/>
		<g class="st3">
			<path class="st4" d="M57.6,3.5c30,0,54.4,24.4,54.4,54.5s-24.4,54.5-54.4,54.5S3.1,88.1,3.1,58S27.5,3.5,57.6,3.5 M57.6,3.4
				C27.4,3.4,3,27.8,3,58s24.4,54.6,54.6,54.6c30.1,0,54.6-24.5,54.6-54.6S87.7,3.4,57.6,3.4L57.6,3.4z"/>
		</g>
		<g class="st3">
			<path class="st4" d="M95.9,19.6v76.9H19.2V19.6H95.9 M96.1,19.4H19v77.1h77V19.4L96.1,19.4z"/>
		</g>
		<line class="st5" x1="96.2" y1="19.3" x2="19.1" y2="96.6"/>
		<line class="st5" x1="19" y1="19.2" x2="96.1" y2="96.5"/>
		<g class="st3">
			<ellipse class="st7" cx="57.6" cy="58" rx="8.5" ry="8.5"/>
			<path class="st4" d="M57.6,49.6c4.6,0,8.4,3.8,8.4,8.4s-3.8,8.4-8.4,8.4c-4.6,0-8.4-3.8-8.4-8.4S52.9,49.6,57.6,49.6 M57.6,49.5
				c-4.7,0-8.5,3.8-8.5,8.5s3.8,8.5,8.5,8.5s8.5-3.8,8.5-8.5S62.3,49.5,57.6,49.5L57.6,49.5z"/>
		</g>
		<line class="st6" x1="2.9" y1="82" x2="112" y2="82"/>
		<line class="st6" x1="2.9" y1="34" x2="112" y2="34"/>
	</g>
</g>
<g id="Icons">
	<g>
		<path class="st9" d="M89.3,17.8c5,0,9,4,9,9v59.7c0,5-4,9-9,9H29.6c-5,0-9-4-9-9V26.8c0-5,4-9,9-9H89.3 M89.3,11.8H29.6
			c-8.3,0-15,6.7-15,15v59.7c0,8.3,6.7,15,15,15h59.7c8.3,0,15-6.7,15-15V26.8C104.3,18.5,97.6,11.8,89.3,11.8L89.3,11.8z"/>
	</g>
	<line class="st17" x1="18.8" y1="56.7" x2="50.3" y2="56.7"/>
	<g>
		<g>
			<path class="st9" d="M52,75.4c-0.1-0.2-0.2-0.6-0.2-1.2V39.1c0-0.6,0.1-1,0.2-1.2c0.2,0.1,0.6,0.2,1,0.6l21.3,16
				c0.8,0.6,1.3,1.4,1.3,2.1c0,0.7-0.5,1.5-1.3,2.1l-21.3,16C52.6,75.2,52.2,75.4,52,75.4z"/>
			<path class="st18" d="M54.9,43.7l17.3,13l-17.3,13V43.7 M51.8,34.9c-1.7,0-2.9,1.5-2.9,4.2v35.1c0,2.7,1.2,4.2,2.9,4.2
				c0.9,0,2-0.4,3.1-1.2l21.3-16c3.3-2.5,3.3-6.5,0-9l-21.3-16C53.7,35.3,52.7,34.9,51.8,34.9L51.8,34.9z"/>
		</g>
	</g>
</g>
<g id="Type">
</g>
</svg>
